<mxfile host="Electron" agent="Mozilla/5.0 (Windows NT 10.0; Win64; x64) AppleWebKit/537.36 (KHTML, like Gecko) draw.io/28.0.6 Chrome/138.0.7204.100 Electron/37.2.3 Safari/537.36" version="28.0.6">
  <diagram name="Page-1" id="_k-J8Ypn1gQTwZJBq9X9">
    <mxGraphModel dx="1181" dy="687" grid="1" gridSize="10" guides="1" tooltips="1" connect="1" arrows="1" fold="1" page="1" pageScale="1" pageWidth="850" pageHeight="1100" math="0" shadow="0">
      <root>
        <mxCell id="0" />
        <mxCell id="1" parent="0" />
        <mxCell id="AycQaTVY-WSe7uSmyWIq-21" value="" style="rounded=1;whiteSpace=wrap;html=1;fillColor=#ffe6cc;strokeColor=#d79b00;" vertex="1" parent="1">
          <mxGeometry x="70" y="30" width="710" height="490" as="geometry" />
        </mxCell>
        <mxCell id="AycQaTVY-WSe7uSmyWIq-2" value="" style="rounded=1;whiteSpace=wrap;html=1;fillColor=#e1d5e7;strokeColor=#9673a6;" vertex="1" parent="1">
          <mxGeometry x="640" y="270" width="120" height="140" as="geometry" />
        </mxCell>
        <mxCell id="AycQaTVY-WSe7uSmyWIq-3" value="Generation" style="ellipse;whiteSpace=wrap;html=1;fillColor=#dae8fc;strokeColor=#6c8ebf;" vertex="1" parent="1">
          <mxGeometry x="670" y="350" width="60" height="50" as="geometry" />
        </mxCell>
        <mxCell id="AycQaTVY-WSe7uSmyWIq-4" value="&lt;div&gt;&lt;br&gt;&lt;/div&gt;&lt;div&gt;&lt;br&gt;&lt;/div&gt;User" style="shape=actor;whiteSpace=wrap;html=1;fillColor=#e1d5e7;strokeColor=#9673a6;" vertex="1" parent="1">
          <mxGeometry x="80" y="220" width="50" height="60" as="geometry" />
        </mxCell>
        <mxCell id="AycQaTVY-WSe7uSmyWIq-9" value="Model API" style="text;strokeColor=none;align=center;fillColor=none;html=1;verticalAlign=middle;whiteSpace=wrap;rounded=0;" vertex="1" parent="1">
          <mxGeometry x="670" y="270" width="60" height="30" as="geometry" />
        </mxCell>
        <mxCell id="AycQaTVY-WSe7uSmyWIq-11" value="DB" style="shape=cylinder3;whiteSpace=wrap;html=1;boundedLbl=1;backgroundOutline=1;size=15;fillColor=#f8cecc;strokeColor=#b85450;" vertex="1" parent="1">
          <mxGeometry x="200" y="90" width="60" height="80" as="geometry" />
        </mxCell>
        <mxCell id="AycQaTVY-WSe7uSmyWIq-24" value="" style="edgeStyle=orthogonalEdgeStyle;rounded=0;orthogonalLoop=1;jettySize=auto;html=1;" edge="1" parent="1">
          <mxGeometry relative="1" as="geometry">
            <mxPoint x="360" y="239.76" as="sourcePoint" />
            <mxPoint x="440" y="239.76" as="targetPoint" />
          </mxGeometry>
        </mxCell>
        <mxCell id="AycQaTVY-WSe7uSmyWIq-28" style="edgeStyle=orthogonalEdgeStyle;rounded=0;orthogonalLoop=1;jettySize=auto;html=1;exitX=0.5;exitY=0;exitDx=0;exitDy=0;entryX=0.083;entryY=0.5;entryDx=0;entryDy=0;entryPerimeter=0;" edge="1" parent="1" source="AycQaTVY-WSe7uSmyWIq-13" target="AycQaTVY-WSe7uSmyWIq-15">
          <mxGeometry relative="1" as="geometry">
            <mxPoint x="350" y="160" as="targetPoint" />
            <Array as="points">
              <mxPoint x="330" y="220" />
              <mxPoint x="330" y="130" />
            </Array>
          </mxGeometry>
        </mxCell>
        <mxCell id="AycQaTVY-WSe7uSmyWIq-15" value="Internet" style="ellipse;shape=cloud;whiteSpace=wrap;html=1;fillColor=#f8cecc;strokeColor=#b85450;" vertex="1" parent="1">
          <mxGeometry x="360" y="90" width="120" height="80" as="geometry" />
        </mxCell>
        <mxCell id="AycQaTVY-WSe7uSmyWIq-19" value="Input GuardRail" style="rounded=1;whiteSpace=wrap;html=1;fillColor=#f8cecc;strokeColor=#b85450;" vertex="1" parent="1">
          <mxGeometry x="640" y="220" width="120" height="40" as="geometry" />
        </mxCell>
        <mxCell id="AycQaTVY-WSe7uSmyWIq-20" value="Output GuardRail" style="rounded=1;whiteSpace=wrap;html=1;fillColor=#f8cecc;strokeColor=#b85450;" vertex="1" parent="1">
          <mxGeometry x="640" y="420" width="120" height="40" as="geometry" />
        </mxCell>
        <mxCell id="AycQaTVY-WSe7uSmyWIq-23" value="" style="edgeStyle=orthogonalEdgeStyle;rounded=0;orthogonalLoop=1;jettySize=auto;html=1;" edge="1" parent="1" source="AycQaTVY-WSe7uSmyWIq-22" target="AycQaTVY-WSe7uSmyWIq-19">
          <mxGeometry relative="1" as="geometry">
            <Array as="points">
              <mxPoint x="580" y="240" />
              <mxPoint x="580" y="240" />
            </Array>
          </mxGeometry>
        </mxCell>
        <mxCell id="AycQaTVY-WSe7uSmyWIq-22" value="Prompt Cache" style="rounded=1;whiteSpace=wrap;html=1;fillColor=#d5e8d4;strokeColor=#82b366;" vertex="1" parent="1">
          <mxGeometry x="440" y="220" width="120" height="60" as="geometry" />
        </mxCell>
        <mxCell id="AycQaTVY-WSe7uSmyWIq-25" style="edgeStyle=orthogonalEdgeStyle;rounded=0;orthogonalLoop=1;jettySize=auto;html=1;entryX=1;entryY=0.5;entryDx=0;entryDy=0;entryPerimeter=0;" edge="1" parent="1" target="AycQaTVY-WSe7uSmyWIq-11">
          <mxGeometry relative="1" as="geometry">
            <mxPoint x="310" y="220" as="sourcePoint" />
            <Array as="points">
              <mxPoint x="310" y="220" />
              <mxPoint x="310" y="130" />
            </Array>
          </mxGeometry>
        </mxCell>
        <mxCell id="AycQaTVY-WSe7uSmyWIq-30" style="edgeStyle=orthogonalEdgeStyle;rounded=0;orthogonalLoop=1;jettySize=auto;html=1;" edge="1" parent="1">
          <mxGeometry relative="1" as="geometry">
            <mxPoint x="120" y="239.76" as="sourcePoint" />
            <mxPoint x="270" y="239.76" as="targetPoint" />
            <Array as="points">
              <mxPoint x="120" y="239.76" />
              <mxPoint x="267" y="239.76" />
            </Array>
          </mxGeometry>
        </mxCell>
        <mxCell id="AycQaTVY-WSe7uSmyWIq-31" value="&lt;b&gt;QUERY&lt;/b&gt;" style="edgeLabel;html=1;align=center;verticalAlign=middle;resizable=0;points=[];" vertex="1" connectable="0" parent="AycQaTVY-WSe7uSmyWIq-30">
          <mxGeometry x="0.2432" y="-2" relative="1" as="geometry">
            <mxPoint x="-21" y="-17" as="offset" />
          </mxGeometry>
        </mxCell>
        <mxCell id="AycQaTVY-WSe7uSmyWIq-32" style="edgeStyle=orthogonalEdgeStyle;rounded=0;orthogonalLoop=1;jettySize=auto;html=1;exitX=0;exitY=0.5;exitDx=0;exitDy=0;entryX=0.53;entryY=1.054;entryDx=0;entryDy=0;entryPerimeter=0;" edge="1" parent="1" source="AycQaTVY-WSe7uSmyWIq-20" target="AycQaTVY-WSe7uSmyWIq-4">
          <mxGeometry relative="1" as="geometry" />
        </mxCell>
        <mxCell id="AycQaTVY-WSe7uSmyWIq-33" value="&lt;b&gt;RESPONSE&lt;/b&gt;" style="edgeLabel;html=1;align=center;verticalAlign=middle;resizable=0;points=[];" vertex="1" connectable="0" parent="AycQaTVY-WSe7uSmyWIq-32">
          <mxGeometry x="-0.2507" y="-3" relative="1" as="geometry">
            <mxPoint y="-7" as="offset" />
          </mxGeometry>
        </mxCell>
        <mxCell id="AycQaTVY-WSe7uSmyWIq-34" value="" style="endArrow=none;html=1;rounded=0;entryX=0.5;entryY=1;entryDx=0;entryDy=0;exitX=0.5;exitY=0;exitDx=0;exitDy=0;" edge="1" parent="1" source="AycQaTVY-WSe7uSmyWIq-2" target="AycQaTVY-WSe7uSmyWIq-19">
          <mxGeometry width="50" height="50" relative="1" as="geometry">
            <mxPoint x="290" y="270" as="sourcePoint" />
            <mxPoint x="340" y="220" as="targetPoint" />
          </mxGeometry>
        </mxCell>
        <mxCell id="AycQaTVY-WSe7uSmyWIq-35" value="" style="endArrow=none;html=1;rounded=0;entryX=0.5;entryY=1;entryDx=0;entryDy=0;exitX=0.5;exitY=0;exitDx=0;exitDy=0;" edge="1" parent="1" source="AycQaTVY-WSe7uSmyWIq-20" target="AycQaTVY-WSe7uSmyWIq-2">
          <mxGeometry width="50" height="50" relative="1" as="geometry">
            <mxPoint x="570" y="370" as="sourcePoint" />
            <mxPoint x="570" y="360" as="targetPoint" />
          </mxGeometry>
        </mxCell>
        <mxCell id="AycQaTVY-WSe7uSmyWIq-36" value="Study Activity (Sentence Constructor)" style="rounded=0;whiteSpace=wrap;html=1;fillColor=#fff2cc;strokeColor=#d6b656;" vertex="1" parent="1">
          <mxGeometry x="125" y="40" width="600" height="20" as="geometry" />
        </mxCell>
        <mxCell id="AycQaTVY-WSe7uSmyWIq-39" style="edgeStyle=orthogonalEdgeStyle;rounded=0;orthogonalLoop=1;jettySize=auto;html=1;exitX=0.5;exitY=0;exitDx=0;exitDy=0;entryX=0.5;entryY=0;entryDx=0;entryDy=0;entryPerimeter=0;" edge="1" parent="1" source="AycQaTVY-WSe7uSmyWIq-13" target="AycQaTVY-WSe7uSmyWIq-38">
          <mxGeometry relative="1" as="geometry" />
        </mxCell>
        <mxCell id="AycQaTVY-WSe7uSmyWIq-13" value="RAG" style="rounded=1;whiteSpace=wrap;html=1;fillColor=#d5e8d4;strokeColor=#82b366;" vertex="1" parent="1">
          <mxGeometry x="280" y="220" width="80" height="60" as="geometry" />
        </mxCell>
        <mxCell id="AycQaTVY-WSe7uSmyWIq-37" value="70B Params" style="rounded=1;whiteSpace=wrap;html=1;fillColor=#dae8fc;strokeColor=#6c8ebf;" vertex="1" parent="1">
          <mxGeometry x="650" y="300" width="50" height="40" as="geometry" />
        </mxCell>
        <mxCell id="AycQaTVY-WSe7uSmyWIq-38" value="Vector Database" style="shape=cylinder3;whiteSpace=wrap;html=1;boundedLbl=1;backgroundOutline=1;size=15;fillColor=#f8cecc;strokeColor=#b85450;" vertex="1" parent="1">
          <mxGeometry x="110" y="90" width="60" height="80" as="geometry" />
        </mxCell>
        <mxCell id="AycQaTVY-WSe7uSmyWIq-40" value="GPT-4o" style="rounded=1;whiteSpace=wrap;html=1;fillColor=#dae8fc;strokeColor=#6c8ebf;" vertex="1" parent="1">
          <mxGeometry x="700" y="300" width="50" height="40" as="geometry" />
        </mxCell>
      </root>
    </mxGraphModel>
  </diagram>
</mxfile>
